<svg xmlns="http://www.w3.org/2000/svg" xmlns:xlink="http://www.w3.org/1999/xlink" viewBox="0 0 95 142.9" xmlns:v="https://vecta.io/nano"><ellipse cx="47.5" cy="42.4" rx="43" ry="42.4" fill="#cacbcc"/><ellipse cx="47.6" cy="21" rx="29.8" ry="18.8" fill="#f3f3f3"/><path d="M48.7 80.1a38.93 38.93 0 0 1-23.2-7.7c-4.1-3-7.5-6.9-10-11.3-2.6-4.6-4.3-9.6-5-14.8-.7-5-.3-10.2 1-15.1 2.5-9.3 8.6-17.3 17-22a45.54 45.54 0 0 1 7.2-3c3.9-1.2 9.8-2.4 15.4-1.1l.2.1h-.2c-4.3.3-8.5 1.5-12.3 3.4-7.3 3.9-12.8 10.7-15 18.7-2.3 8.6-.8 18.2 4.2 27C37.5 70.6 58.3 75.7 75.4 66l5.1-2.8-.1.2c-3.8 5.2-6 8.1-12.7 11.8-4.4 2.5-9.3 4.1-14.4 4.7-1.6.1-3.1.2-4.6.2zM45.8 4.6c-3.4 0-6.8.6-10.1 1.6a45.54 45.54 0 0 0-7.2 3c-8.3 4.8-14.4 12.7-16.9 22-2.7 10.1-1.2 20.8 4 29.8 10.6 18.1 33.8 24.3 52 14 6.6-3.8 8.9-6.6 12.6-11.7L75.5 66c-8 4.6-17.4 6.1-26.4 4-8.9-2.1-16.5-7.8-21-15.7-5.1-8.8-6.6-18.4-4.2-27 2.2-8 7.7-14.8 15-18.7 3.8-1.9 7.9-3.1 12.1-3.4-1.8-.4-3.5-.6-5.2-.6z" fill="#28377b"/><path d="M21.8 40.8c-2.3-17.5 6.3-30 22-35.2-19.6 1.5-32.2 17.1-32.2 36.7.1 20.3 16.7 36.8 37 36.7 9.3 0 20.5-4.3 27.4-11.7-6.6 3.1-14.1 5.2-21.6 4.8-16-.9-30.3-14-32.6-31.3z" fill="#095aa4"/><path d="M53.6 32.6l-1.3 2c-.1.1-.1.2-.2.3l-2.5-1.3-.1.2-1.3 2c-.3.5-.3.6-.1.7l1.9.9.6.3 1.1-1.5.5-.8h0l1.9.9.6.3 1.1-1.5c.3-.3.5-.7.6-1.2l-2.6-1.3h-.2zm8.2 26.2c-.1-.3-.3-.6-.4-.8-1.2-2.8-5.3-3.9-7.7-3.6-7.2.4-11.8 1.5-15.1 1.4-4.1-.1-5.7-1.4-6.7-3.2 2.3 7.8 14.9 5.1 20.6 4.2 5.8-.6 8.6 1.2 9.3 2zm-10-7c10.6-.8 11.7 6 12.2 8.3.2-7.6-4.3-12.5-18.3-10.7S29.2 47.1 28 45.3c0 0-.6-.3-.4.1l.6 1.6c3.7 7.4 13 5.6 23.6 4.8h0zm9.8-39c.4.6 1.2.9 1.8.5.1-.1.3-.2.4-.3.3-.3.4-.2.6 0s0 1.2-.3 2.2c-.3.9-.7 1.8-1.1 2.7 0 0 .4-.2.7-.5a5.66 5.66 0 0 0 1.4-4.8c-.2-1.2-1.2-2.4-2-1.7s-1.3.5-1.5.1.4-.8.8-1c-.3-.6-.5-1.3-.6-2-.6 0-1.1.3-1.2.9-.1 1.4.2 2.7 1 3.9h0zM36.2 35.2l-1.3 2c-.3.5-.3.6-.1.7s1.6.7 1.9.9l.6.3 1.1-1.5c.3-.3.5-.7.6-1.2l-2.6-1.3-.2.1zM65.8 9.6c1.7 1.2 3.3 2.6 4.7 4.2-.3-.1-.7-.1-1 .1-1.1 1-1.5 2.6-.9 3.9 0 0 .2 1.6 6.7 8.6 4.5 4.8 4 8 4 8s-1.4 10.4-9.8 11.1c.7.2 1.5.3 2.3.3 1.5-.1 2.9-.9 3.8-2.1.9-.9 4.4-5.6 4.3-9.9.4 5.6-.5 11.2-2.6 16.4-.1.3-.2.7-.4 1-1.6 4.2-4.8 7-8.8 9.1.2-2.3.3-7-1.2-9.5-2.5-4.1-6.9-6.7-11.7-7.1-5.5-.3-5.6.1-12.2.8-5.1.5-12.1 0-14.6-4.7.7-4.8 3-6.6 6.1-9 3.1-2.1 5.4-3.3 6.5-4.2 0 0-.7 3.5.1 5.5.6 1.3 1.9 2 3.3 1.8.5-.2 3.2-.8 4.6-4.7.3-.9.8-2.7 1.6-2.4.4.2.4 1.8.4 1.8.1.7.9 1.2 1.6 1.1.1 0 .2-.1.3-.1 1.7-.4 1.9-1.8 2.4-2.7.2.1.5.5.9.4s1-.1 1.9-2.4c.1-.1.4.2.7.1s1.8-.4 2-3.5c.1-.9.1-1.8 0-2.6 0 0-.2-.3-.3.1-.1.7-.3 3-1.9 2.9 0-.2-.1-.8-.1-.8s-.5 0-.5.4-.8 3.1-2.4 2.7v-1.1c0-.1-.2-.4-.3 0s-1 3.7-3.2 3.4c-.5-.1-.7-.9-.7-.9l-.1-1.3s-.3-1.1-1-.7-.8 1.3-1.6 3.1c-.8 1.7-3.1 4.3-5.3 4-1.2 0-2.1-1-2.1-2.1v-.1l.2-2.5c1.3-1.3 2.3-2.9 3-4.6 1.1-2.9 2.2-4.9.9-5.6 0 0-.3-.1-1.8 1.2-.6.4-1.2.6-1.8.8-1.8.4-4.1.9-4.5 1.9-.6 1.4-1.8 3-1.7 4.3.2.9.7 1.7 1.5 2.1 0 0-10.6 5.2-9.5 13.4 0 0-.5 5.3 6.4 7.2 4.1 1.3 9.5.7 10 .7s8.6-1.5 12.4-.6c9.7 1.6 11.8 9.1 11.5 13.4-11.6 5.7-29 4-29 4 7.7 2.3 7.5 2.5 11.2 2.9C69.3 67 76 55 78 52.2S92.5 24.9 65.8 9.6zM79 31c-1.1-2.9-1.6-3.9-7.1-10.1-1.9-2.3-3.8-3.9-2.4-5.6 1.2-1 1.6-.2 1.8.5.1.4-.3.8-.3.8s.3-1.2-.6-1.1-.8 1.6.2 2 1.4-1 1.1-2.1c-.1-.2-.1-.4-.2-.6 4.7 5.2 7.6 11.8 8.3 18.7-.1-.8-.4-1.7-.8-2.5zm-42.1-8.8c0-.2.8-.5 2.3-.9 1.7-.3 3.3-1.1 4.7-2.2.2-.2 1.3.6-.2 2.2-.7.8-1.4 1.6-2.2 2.3-1.1.3-3.9.8-4.6-1.4zM58.7 33h-.8c5.2 1.7 7.5-3.9 7.8-5.9.2-.9.7-.5.7-.5.1.3.3.5.5.6.3.2 1-.9 1-.9.8.4 1.3-1.7 1.4-2.2 0 0-.4.1-.5.6 0 .3-.2.5-.5.6 0 0-.2.1-.2-.2s-.3-.5-.4.3c-.1.7-.6.8-.6.8-.2-.1-.1-.3-.5-.6-.5-.5-1.1.6-1.2 1.1-.2 1.5-.9 2.8-2 3.9-1.2 1.4-2.9 2.2-4.7 2.4zm-5.3-19.9l.1-.3c.9.9 1.1 2.4.4 3.5l-.3.9a3.92 3.92 0 0 0 2.6-3.2c.1-1-.3-1.9 0-2 .5 0 .9.3 1.2.7.2-.2.3-.5.4-.8 0 0-1-1.5-1.8-.3-.4.8-.5 1.7-.1 2.6 0 0-.4 1.6-1.5 1.9.4-1.2 1.2-3.2-.9-4.4-.3-.1-1.1 0-1 .9 0 .3.2.6.5.6.1 0 .3 0 .4-.1h0zm-4.6 6.7c.7-.2 1.3-.2 2-.1l-2.3 1.8h.2c1-.6 1.9-1.4 2.7-2.1.4-.6.7-1.5.4-1.4-.5.2-1 .2-1.6.2-1.8.1-2 1.5-2.2 2.2.3-.2.5-.4.8-.6h0zm-4.7 19.1v-.2l-.6.3c-.5.4-.9.8-1.3 1.3-.1.4 0 .7.3 1 .3.2.6.1.9.2.8-.1 1.4-.6 1.7-1.4.2-.5-.2-1-.5-1.3l-.7.7c.2.3.4.7.5 1.1-.3.1-.7.2-1 .1s-.4-.4-.5-.7.3-.5.5-.7.5-.3.7-.4zM61 36.5h0c-.3-.2-.4.1-.7.2-.8.9-1.8 1.8-1.9 3.1.1.3.3.6.6.7.2.1.5 0 .7-.1.4-.3.7-.7 1-1.1 0-.1-.1-.1-.1-.1-.3.2-.4.5-.8.5-.2-.1-.4-.2-.5-.5-.1-1 .8-1.7 1.4-2.3.1-.2.3-.3.3-.4zm7.3-2.1c.1 0 .3-.1.3-.2.1.3.1.6.1.8 0 .3 0 .7-.1 1-.1.2-.1.5-.2.7-.1.1-.1.2-.1.4 1.1-.6 1.5-1.8 2.2-2.7.2-.2.4-.5.8-.5.2.2.4.3.6.5.2-.2.4-.4.5-.7l-.1-.2c-.2-.2-.3-.5-.7-.5-.7.2-1.2.7-1.5 1.3-.3.5-.6 1-1 1.5 0-.6.1-1.2 0-1.8 0-.8-.3-1.6-.9-2.3 0 0-.1-.1-.2-.1-.2.6-.7 1.2-.4 1.8l.3.6c.3.2.4.3.4.4z" fill="#0459a2"/><defs><path id="A" d="M0 91.2h27.9v25.3H0z"/></defs><clipPath id="B"><use xlink:href="#A"/></clipPath><g clip-path="url(#B)"><path d="M16.3 106.2l-3.8.9-1.5.3c-2.1.5-2.9 1.1-3.7 2.8-.8 1.5-1.2 3.2-1.2 4.9 0 .5.1 1.1.2 1.6H0l4.1-8.2-.2-4.5 2.3.3 2.9-5.7c1.6-3.3 2-4.2 2-5.6 0-.5-.1-1.1-.2-1.6h5.3L28 116.6h-8c.1-.4.2-.8.2-1.2-.1-1.4-.4-2.8-1-4.1l-.6-1.4-1.9-4.3-.4.6zm-3.1-8.8l-3.4 7.2 6.9.8-3.5-8z" fill="#0465ab"/></g><defs><path id="C" d="M29.2 90.7h23.3v26.4H29.2z"/></defs><clipPath id="D"><use xlink:href="#C"/></clipPath><g clip-path="url(#D)"><path d="M51.3 116.1c-2.4.7-5 1-7.5 1-4.5 0-8.1-1.2-10.6-3.4-2.7-2.5-4.2-6-4.1-9.7-.1-3.8 1.5-7.4 4.4-9.9 2.7-2.3 6.1-3.4 10.7-3.4 2.3 0 4.6.3 6.8.8V96c-2-1.3-4.3-2-6.7-1.9-5.6 0-8.9 3.6-8.9 9.6 0 3.1.9 5.7 2.4 7.3 1.8 1.7 4.2 2.6 6.6 2.5a9.22 9.22 0 0 0 7.3-3.2h.7l-1.1 5.8z" fill="#0465ab"/></g><defs><path id="E" d="M57.3 91.2h8.1v25.3h-8.1z"/></defs><clipPath id="F"><use xlink:href="#E"/></clipPath><g clip-path="url(#F)"><path d="M64.1 109.4c0 3.6.3 5.4 1.3 7.1h-6.9V98.4c0-3.6-.3-5.4-1.2-7.1h6.8v18.1z" fill="#0465ab"/></g><defs><path id="G" d="M69.7 90.7h25.4v26.4H69.7z"/></defs><clipPath id="H"><use xlink:href="#G"/></clipPath><g clip-path="url(#H)"><path d="M95 110c0 2.7-.2 3.5-1 4.3-1.8 1.8-5.4 2.8-10.1 2.8-4.4 0-7.8-.9-10.1-2.9-2.7-2.2-4.1-5.6-4.1-9.8-.1-3.4 1-6.6 3.2-9.2 2.8-3.1 6.7-4.5 12.3-4.5 2.4 0 4.7.2 7 .7V96c-2.2-1.3-4.7-2-7.3-1.9-6.1 0-9.1 3.3-9.1 10 0 6.3 2.7 9.4 8.1 9.4 1.8.1 3.6-.4 5.1-1.5.8-.7 1.2-1.7 1.1-2.7 0-2.2-.4-2.8-2.8-3.5l-3.2-1-.7-1H95v6.2z" fill="#0465ab"/></g><g fill-rule="evenodd" fill="#bababa"><path d="M41.4 121.1h0 0c.2.1.1 0 .2.1h0v.2h-.1s0 .1-.1.1h0v.1h0v.1h0v.1h0 0-.1 0 0v.2l.2.1h.2 0 .1a.45.45 0 0 1 0 .5v.2h0 0 0v.1h-.1v.1h0v.1h0v.1l-.4.4h0 0 0v.1c-.1.1-.3.1-.4.2 0-.1-.1 0-.1-.1v-.1h.1l.1-.1v-.1h.1l.1-.1h0v-.1a1.38 1.38 0 0 0 .3-.4s-.1 0-.1-.1h-.1 0-.2 0-.1l-.2-.2v-.1h0 0 0v-.1m.1-.3h0v-.1h0v-.1h0 0 0v-.1h0v-.2h.1 0 0v-.1h0v-.1l.3-.2c.1-.1.2-.3.4-.3l-.8 1.2zm24-.3h0 0c.1 0 .1 0 .2.1h0v.2H65v.1h0v.1h0v.1h0v.1h-.1v.1h0 0 0v.2l.2.1h.2 0 .1a.45.45 0 0 1 0 .5v.2h0 0 0v.1h-.1v.1h0v.1h-.1 0l-.4.4h0v.1h0 0c-.1.1-.3.1-.4.2 0-.1-.1 0-.1-.1v-.1h0l.1-.1v-.3h.1l.1-.1h-.5v-.1a1.38 1.38 0 0 0 .3-.4s-.1 0-.1-.1h-.1 0l-.2-.1h0 0l-.2-.2h0 0 0 0v-.1-.1h0v.1h0 0 0v-.1h0 0 .2l.1-.1h.1v-.1h0v-.1h0v-.1l.3-.2c.1-.1.2-.3.4-.3v-.1z"/><path d="M40.7 124.8h.3l.2.1v.1h.1 0l.1.1v.2h0v.1h0v.3h0v.2h0v.2h0v.3h0v.4h0v.2h0v.1h0v.3h0v.1h0v.2h0v.4h0v.2h0v.1h0v.2h0v.3h0v.1h0v.1h0v.1h0v.1h0v.1h0 0 0v.1h0v.3h0v.2h0v.4h0v.7.4h0 0 0v.1h0 0l.1.1h0 .1 0 .3 0l.4-.1h0 .1 0-.2v-.1h.1v-.1h.1v-.1l.2-.2h0l.1-.1v-.1h.1v-.1h0v-.1h0 0 0c.1 0 .1.1.1.2v.1h0 0 0v.1h0 0 0v.1h0v.3h0 0 0v.1h0v.1h-.1 0 0v.1l-.1.1v.1h0v.1h-.1 0 0l-.1.1h0v.1l-.1.1h0v.1h0l-.1.1h-.1l-.1.1h0v.1H42h0 0 0 0 0 0 0-.1c-.1 0-.2.1-.3.1h-.4 0-.1 0 0 0-.7v.1h0l-.1-.1h-.1v-.1l-.1-.1v-.1h0v.3h0v-.1h0v-.1-.6h0v-.3h0v-.2h0v-.2h0v-.3h0v-.1h0v-.1h0v-.1h0v-.1h0v-.1h0v-.1h0v-.2h.1v-.1h0v-.3h0v-.2h0v-.5h0v-.2h0v-.2c0-.2.1-.4.1-.5v-.4h0v-.2h0v-.3h0v-.4h0v-.1h0v-.2h0v-.1h0v-.1h0v-.1h0c-.1-.1 0-.2-.2-.2h0-.1 0-.1v.1h0l-.1.1v.1h-.1v.1h0v.1h0v.1h-.1v.1h0v.1l-.1.1v.1h0 0s-.1 0-.1.1 0 0 0 0l-.1-.1h0v-.1h0v-.1h0v-.1h.1v-.1h0v-.1h0 0 0v-.1h0v-.1h.1v-.1h0v-.1h0 0 0v-.1h.1v-.1h0v-.1h0 0l.1-.1v-.1l.1-.1v-.1h.1v-.1l.2-.1v-.1H40s0-.1.1-.1h.1v-.1h0v-.1h0 0c.1 0 .2 0 .2-.1m-5.2 7.2h0 0 0 0 .3 0c.2 0 .5 0 .7-.1h.2 0 .1 0 .1 0 .1 0 .1 0 .2 0 0v-.2h0 0 0v-.1h0v-.1h0v-.2h0 0 0v-.1h0v-.1h0 0 .1v-.2h0 0 0v-.1h0v-.1h0v-.1H37v-.1h0 .1 0 .2 0 .1 0 .1 0 .7 0 0 0 0v.1h0l.1.2h.1v.5h0l-.1.2h0v.1h0c0 .1 0 .1-.1.2h0v.1h0 0 0 0 0v.1h0v.1l-.1.1v.2h0v.1h0v.1l-.1.1v.1h0v.1h0v.1h0v.1h0v.1h0 0-.1 0-.1 0s-.1 0-.2.1h0-.1 0l-.2.1h0-.2 0-.1 0-.6 0-.2 0 0 0-.1 0-.1 0-.2 0-.1 0-.1 0-.7 0-.2 0 0l-.3-.3h0l-.1-.1v-.1h0v-.1h0v.5h0v-.2h0v-.4-.6h0v-.5-.9h0v-.1h0v-.1h0v-.1h0v-.4h0v-.1h0v-.2h0v-.3h0v-.5h0v-.2h0v-.1h0v-.2h0v-.1h0v-.4h0v-.2h0v-.4h0v-.2h0v-.4l-.1-.1h0-.1 0-.3v.1h.3l-.1.1h0l-.1.2h0v.1h0v.1h0v.1h0v.1h.1v.1h0 0-.1v.1h0 0l-.1.1v.4l-.1.1v.1h-.5 0-.1v-.2-.1h0v-.1h0v-.2h0 0 0v-.1h.1v-.1h0c0-.1 0-.1.1-.2h0 0 0v-.4h0 0 0c0-.1 0-.1.1-.2h0v-.1l.1-.1v-.1h0v-.1h0 0 0l.1-.2.1-.1v-.1h0v-.1h0v-.1h.1 0l.1-.1v.3h.1 0l.1-.1v-.1h.1c0-.1.1-.1.1-.2H34h0l.2-.1h0 .1 0 .1 0 0 .2l.2.2c0 .1 0 .1.1.2s0 .1 0 .2h0v.6h0v.1h0v.1h0v.2h0v.1h0l-.1.5h0 0 0v.2h0v.1h0v.2h0v.3h0v.1h0v.1h0v.2h0v.2h0v.1h0v.2c0 .2-.1.4-.1.6v.6c-.1.3-.1.6-.1.9v.2h0v.3h0v.1h0v.1h0 0 0c0 .1.1.1.1.2"/><path d="M67.8 131h.6 0 0 0l.4-.1h0 .1 0 .1 0 0 0 .1 0 .1 0 .1 0 .1 0 0v-.1h.1 0 0l.1-.1h0v-.5-.4-.3-.1h0v-.3-.2h0v-.9h0v-.1h0v-.1h0v.2h0v-.1h0v-.2h0v-.2h0 0 .1v-.5h0v-.1l.1-.1v-.2h0v-.1h.1c0-.1 0-.1.1-.2l.1-.1v-.1h0v-.1l.2-.1v-.1l-.3.2h0 0l.1-.1s.1 0 .1-.1h0 .2 0 .8v-.1c.2-.1.3-.1.5-.1.1.1.1.1.2.1v.1h0 0l.1.1h0 0v.1h0v.2c.1.1 0 .2 0 .3v1.1.4.4h0v.3h0v.3h0v.7.2h0v.1h0v.2h0v.1h0v.1h0v.1h0c0 .1 0 .2.1.2h.1v.1l.2.1v.1h0c0 .1.1.1.1.2h0 0 .2 0 .7 0 .1 0 .1 0 .1 0l.2-.1h0 .1 0l.1-.1h0 .1v-.1h0 0 .1 0l.1.1h.1 0c-.1 0-.1.1-.2.1v.1h0a.78.78 0 0 1-.4.4l-.1.1h-.1 0-.1 0-.1v.1h-.1v.1l-.1.1h0-.1v.1h-.1 0-.1v.1h-.1v.1h0 0-.1l-.1.1h-.1v.1h-.1 0-.1 0 .2 0-.1 0 .5 0-.7 0-.2 0 0 0-.1l-.1-.1h0l-.1-.1h-.1v-.3h0l-.1-.1v-.1h-.1 0 0v-.1h0 0 0v-.1h0v-.1h0v-.4h0v-.1h0 0 0 0 0v-.4c0-.2 0-.4.1-.6v-.3h0v-.1h0v-.3h0v-.3h0v-.5-.5h0v-.4h0v-.2h0v-.2h0 0 0v-.1l-.1-.1v-.1h-.1 0-.1 0-.3 0c-.1.1 0 .3 0 .4-.1.5-.1 1-.1 1.5v.6h0v.1h0 0 0v.2h0v.1h0v.1h0v.1h0v.1h0v.1h0v.1h-.1v.1h0v.1h0v.1h0v.1h-.1v.1h0 0 0v.3l-.1.1v.1h-.1v.1h0v.1h0v.1l-.1.1v.1l-.2.2v.1h-.1 0-.1v.1h0v.1h-.2 0-.1 0 0 0-.1 0 0 0-.3 0-.1 0-.1 0-.1 0-.5 0l-.3.1c0-.1-.1-.1-.1-.2H68h0 0 0-.1v.1l-.3.1h0 0v.1h-.1 0 0 0-.2 0 0 0-.3 0 0 0-.1 0-.1 0-.6-.2 0-.2l-.1-.1h0v-.1h0v-.1h0v-.1h0v-.1h0v-.1h0v.7h0v-.1h0v-.3h0v-.4h0v-.3h0v-.5h0v-.1h0v-.1h0v-.2h0v-.1h0v-.3h0v-.1h0v-.2h0v-.9h0v-.3h0v-.2h0v-.1h0v-.2h0v-.3c0-.3 0-.6-.1-.9l-.1-.1v-.1h-.1c0 .1-.1.1-.2.1v.1h0v.1h0 0-.1c0 .1 0 .2-.1.3h0v.1h0v.1h0v.1h0v.1h0 0l-.1.1v.1l-.1.1v.1h0v.1h0c0 .1 0 0-.1.1v-.4-.1h0v-.1h0v-.1h0 0 0v-.1h0v-.1h0c0-.1 0-.2.1-.2h0c0-.1 0-.1.1-.1h0v.1h0v-.1h0v-.1h0v-.1l.1-.1v-.1h.1v-.1h0v-.1h0v-.1h.1v-.1s.1 0 .1-.1h0l.1-.1h0 0v-.1h0l.2-.2h0l.1-.1h.1c.1-.1.2-.1.3-.1.1.1.1 0 .1.1h0 0 0 .1v.1h0 0 0c.1.3.1.6 0 .9v.4h0v.1h0v.3h0v.1h0v.1h0v.3h0v.2h0v.1h0v.1h0v.5h0v.1h0v.1h0v.1h0v.7 1.1.1h0 0 0v.2c0 .1 0 0 0 0 .2.2.7.1.9 0h.1 0 .3 0 .1 0 .1 0 .1 0 0 0 .1 0 0 0 .1 0-.1 0 .1 0l.2-.1h0-1 0 .1v-.1h.1v-.1h0l.1-.1h0l.1-.1h0l.1-.1v-.1l.2-.3h.1 0v.1c-.1.1 0 .1-.1.2h0v.1l-.2.2h0 0v.1h0c0 .1-.1.1-.1.2"/><path d="M68.2 128.3H68h0l-.2-.1h0c-.2 0-.5 0-.7.1h-.2 0l-.2.1-.3.3v.1h-.1 0-.1s0-.1-.1-.1l.3-.8h.1v-.1h0v-.1h.1v-.1l.1-.1h0l.1-.1v-.1h0c0-.1.1-.1.1-.2.1 0 .1 0 .1-.1h0 0 0 .2v-.1h.1 0 .1 0 0 0 .1 0 .1c.2-.1.4-.1.6-.1h0 .4 0 .1 0 .1 0c.1 0 0 0 .1.1h0v.2c-.1.1-.1.1-.1.2h0v.1l-.1.1v.1h0v.1h-.1v.1h0v.1h0v.1h0 0-.1v.1h0v.1h0v.1m-16.2.5s-.1 0 0 0h0 0l-.1.1h0 0c-.1 0-.1 0-.1.1l-.4-.1h0-.1 0-.1 0 0 0-.1v-.1h-.3v-.1h0 0l-.1-.1v-.3h0 0 0v-.2h0v-.1h0 0 0v-.1h0v-.1h0c.1-.1 0-.2.2-.3 0-.1 0-.2.1-.2h0 .1v-.1h.1c0 .1.1 0 .1.1h0 0l.1.1h.1 0 .2 0 0v.1h0 0 .1l.2.1v.2h0v.1h0 0 0v.1h0v.1h0v.1h0v.2h0v.2h0 0 0v.2"/><path d="M45.7 130.4c0 .1-.1.1-.2.2l-.2.2h0 0 0s0 .1-.1.1c0 .5.2.9.6 1.1l.2.2h0l.1.1h.1 0 0v.1h0v.1h.1 0 .1 0 .1 0 .1 0 .1 0 .1 0 .2 0 0 0 .2 0 0 0 .1 0 .1 0 .1 0 .3 0 .1 0 .1 0 0 0 .3 0 .2 0c.1 0 .2-.1.4 0h.5 1 .9c.2-.1.5-.1.7-.1h.2 0 .2 0l.3-.1h0 .1 0 .3 0 .1 0 .2 0 .1 0 .3 0l.2-.1h0l.2-.1h0 .1 0 .1 0 0 0 .1 0 .1 0 .1 0 .1 0 .2 0 0 0l.2-.1v-.1h.1 0 .1v-.1h.1 0 0 0c.1-.1.1-.1.1-.3h0v-.1h0v-.1h0v-.1c-.1 0-.2-.1-.2-.2v-.1h-.1v.1h0l-.1-.1h0v-.1h0v-.1h0v-.1h0v-.1h0v-.2h0v-.1h0v-.2h0v-.1h0v-.1h0v-.2h0c.1-.1 0-.2.2-.2 0 .1.1.1.2.1v.1h.1l.1.1.2.2v.1l.2.2c.1 0 .2 0 .2-.1h.2 0 0 0 .6 0 .1 0 .1 0 .1 0 .1 0 .2 0 .1 0 0 0 .1v-.1h.1v-.1l.2-.1h0 0v-.1h0v-.7h0v-.2l.1-.1h0s.1.1.1.2h0v.2h0v.1h0v.1h0v.1h0v.1h0v.2h0 0 0v.1h0v.1h0v.1h0v.2h0v.1h0v.1h0v.1h0c0 .1 0 .3.1.4h.1.4.1 0 .4 0l.3-.1c.1-.2.2-.4.3-.7h0 0l.1-.1v-.1h0v-.1h0v-.1h0v-.1h0v-.1h0v-.1c.1-.1.2-.3.4-.3h.1c.2-.1.3 0 .4.1 0 .1.1.1.1.1h0v.1h0v.3h0 0 0v.3h0v.2h0 0 0v.1h0v.2h0v.2h0 0 0v.1h0v.1l-.1.1v.2h0v.1h0v.1l-.1.1v.1h0l-.1.2h0l-.1.1h-.1v.1h0v.1h-.1l-.1.1h-.2v.1h-.1 0 0 0-.1 0 0v.1h-.1 0-.1 0 0 0-.2 0-.2 0-.1 0-.1 0-.1 0-.7l-.1-.1h0v-.2h0 0 0v-.1h0v-.2h0v-.8h0v-.1h0v-.3l-.3.1v.1h-.1 0-.1 0 0 0-.2 0-.7 0-.1 0-.2 0 0 0-.4 0-.1c0 .1 0 .1-.1.2h0 0 0v.1h0v.1h0 0 0v.9h0v.1h0 0 0v.2h-.1v.1h0 0l-.1.1v.1h0v.1h0v.1s-.1 0-.1.1v.1l-.3.3h0s0 .1-.1.1h0l-.1.1-.2.1h0 0 0 0 0-.1 0-.1 0l-.2.1h0-.2v.1l-.2.1h0l-.2.1h-.1 0-.1 0-.1v.1h-.2 0 0 0-.1 0 0 0 .4 0-.2 0-.1 0-.1 0-.2 0-.2 0-.1 0-.3 0-.1 0-.1 0-.1 0-.1 0-.2-.1c-.1 0 0 0 0 0h0-.1 0-.1 0-.2 0-.1-.4 0-2.1 0-.4 0 0c-.3 0-.7 0-1-.1h-.1 0-.1 0-.2 0-.2 0-.1 0 0 0-.1 0l-.3-.1h0-.1 0 0 0-.2 0l-.2-.1h0-.1 0-.1 0-.2 0-.1v-.1h-.1 0-.1v-.1h0v-.1h0l-.1-.1h-.1v-.1h0l-.1-.1H45h0-.1v-.1l-.1-.1v-.1l-.1-.1h0l-.1-.1h0 0v-.1h0v-.1h0v-.1h0v-.1h0 0 0v-.1c-.1-.4-.2-.8-.1-1.2v-.1h0v-.1h0v.2h0v-.1h0v-.1h0l.1-.2h0v-.1h0 0 0v-.1h0 0 0v-.1h0v-.1l.1-.1v-.1l.1-.1h0l.2-.2.1-.1h.1l.1-.1h0l.1-.1h.1 0l.2-.1.1-.1h0l.1-.1h0v-.1h.1 0 .1 0 .2 0 .1 0 .1 0 .1 0 .1 0 .1 0 .2 0 0 0 .8 0 .8.2 0 .3 0 .1 0 .1 0 0 0 .1 0 .2 0 .1 0 0 0 .2 0 .4 0 .1l.1.1h0l.1.1h0s0 .1.1.1h.1l.1.1h0l.2.2h.1l.1.1h0v.1l.1.1h0a1.38 1.38 0 0 0 .4.3l.1.3h0v.3c-.1.1-.1.1-.3.1l-.1-.1h0v-.1l-.1-.1h0 0v-.1h0 0l-.1-.1v-.1h-.1v-.1h-.1 0-.1 0 0 0-.1v-.1h-.1l-.1-.1h0v-.1h-.1v-.1h0 0-.1l-.1-.1h-.1 0 0 0-.1v-.1H50h0-.1 0-.1 0 0 0-.1 0-.1 0 0 0-.1 0-.3 0-.7 0-.5 0 0 0-.1 0-.2 0-.2 0-.4 0-.1 0-.1v.1h-.1 0-.2v.1h0 0-.1 0-.1 0-.1 0-.2v.1H46h0 0 0 0v.1h0 0c0 .1-.1.1-.2.1m29.3.7h0l.1-.1v-.1h0v.1c0 .1 0 .1-.1.1h0z"/><path d="M58.2 134.2v.3h0v.1h0v.1h0v.1h0v.1h-.1 0 0v.1.1h0l-.1.1v.1h0v.1h0v.1h0c-.1.1-.1.3-.3.3-.1-.1-.1-.1-.3-.1h0 0 0-.3-.4 0-.2 0-.5 0-.1v.1h-.1v.1s-.1 0-.1.1v.1h-.1c-.1.1 0 .1-.2.1v-.3h0v-.1h0v-.1h0 0 0v-.1h0v-.1h0v-.1h.1 0 0v-.1h0v-.1h0v.2h.1v-.1h0v-.1h0v-.1h0v-.1h0c0-.1.1-.1.1-.2h.1l.1-.1h.1 0 .1v-.1h.2 0c.3-.1.5-.1.8-.1h0 .3 0 .1c.1 0 .2.1.2.1m-16.3.3c.1 0 .1 0 .2.1v.1l.2.1v.1h.1v.1h.1 0 0 0 0v.1h0v.2h0v.1l-.1.1v.1h0 0 0v.2h-.1v.1h0v.1h0v.1h0v.1h0v.1h0v.1h0c-.1.1-.2.2-.4.3h0-.3 0-.1l-.1-.2-.3-.2s0-.1-.1-.1l.1-.2h0v-.2h0v-.1h0v-.1h0v-.1h0v-.1h0v-.1h0v-.1l.1-.1v-.1h0v-.1l.1-.1v-.2h0 0 .2l.4-.1zm-13.1-4.3c.1 0 .1 0 .2.1v.1l.2.1v.1h.1v.1h.1 0 .1 0 0v.1h0v.2h0v.1h-.1v.1h0v.1h0v.1h-.1v.1h0v.1h0 0-.1v.3h0v.1h-.1v.1h-.1c-.1.1-.2.2-.4.3h0-.2 0 .1l-.1-.2-.3-.3c0-.1 0-.1-.1-.1s0-.1.1-.2h0v-.2h.1v-.1h0 0 0v-.1h0v-.1h0v-.1h.1v-.4l.1-.1v-.1h0v-.1l.1-.1v-.1h0 0 0l.3.1z"/></g><path d="M32.9 140.1c-5.3.6-10.5 1.5-15.5 1.5-2.2.1-5.8-.4-5.8-3.4 0-2.7 2-4.4 3.6-5.8 3.2-2.6 7-4.4 11.1-5.3 1.8-.2 4.1-.6 5.9 1.4 1.4 2.2.6 4.2.2 5.6-.1-.6-.1-1.2-.1-1.9.2-1.3-.3-2.6-1.2-3.6-2.8-1.6-6.6 0-10.6 1.9-2.1 1.1-4.1 2.5-5.8 4.2-1.8 1.7-2.5 4.5-.6 4.9 4.8 1.1 11.8-.6 18.4-1.2 13.6-1.7 26.2-1.6 35.3-.1s14.8 3.6 15.4 4.6c-9.9-3.3-29-5.6-50.3-2.8" fill="#bababa"/></svg>