<?xml version="1.0" encoding="UTF-8" standalone="no"?>
<svg
   id="Layer_2"
   width="29.243999"
   height="29.243999"
   viewBox="0 0 29.244 29.243999"
   version="1.1"
   sodipodi:docname="chooseEasy.svg.2023_05_27_02_34_23.0.svg"
   inkscape:version="1.2.2 (732a01da63, 2022-12-09)"
   xmlns:inkscape="http://www.inkscape.org/namespaces/inkscape"
   xmlns:sodipodi="http://sodipodi.sourceforge.net/DTD/sodipodi-0.dtd"
   xmlns="http://www.w3.org/2000/svg"
   xmlns:svg="http://www.w3.org/2000/svg">
  <sodipodi:namedview
     id="namedview40"
     pagecolor="#ffffff"
     bordercolor="#000000"
     borderopacity="0.25"
     inkscape:showpageshadow="2"
     inkscape:pageopacity="0.0"
     inkscape:pagecheckerboard="0"
     inkscape:deskcolor="#d1d1d1"
     showgrid="false"
     inkscape:zoom="18.807277"
     inkscape:cx="19.194698"
     inkscape:cy="10.900036"
     inkscape:window-width="1366"
     inkscape:window-height="705"
     inkscape:window-x="1072"
     inkscape:window-y="-8"
     inkscape:window-maximized="1"
     inkscape:current-layer="Layer_2" />
  <defs
     id="defs24">
    <style
       id="style22">.cls-1{fill:#000d2b;}.cls-2{fill:#2447ff;}</style>
  </defs>
  <g
     id="OBJECT"
     transform="translate(3)">
    <g
       id="g36">
      <g
         id="g32">
        <path
           class="cls-1"
           d="m 5.8488,7.7956 c 0,-0.5388 -0.4365,-0.9748 -0.9748,-0.9748 -0.5383,0 -0.9748,0.436 -0.9748,0.9748 v 0.9748 c 0,0.5388 0.4365,0.9748 0.9748,0.9748 0.5383,0 0.9748,-0.436 0.9748,-0.9748 z"
           id="path26" />
        <path
           class="cls-1"
           d="m 4.874,11.6948 c -0.5383,0 -0.9748,0.436 -0.9748,0.9748 v 0.9748 c 0,0.5388 0.4365,0.9748 0.9748,0.9748 0.5383,0 0.9748,-0.436 0.9748,-0.9748 v -0.9748 c 0,-0.5388 -0.4365,-0.9748 -0.9748,-0.9748 z"
           id="path28" />
        <path
           class="cls-1"
           d="M 19.1819,3.1795 C 18.982,2.9958 18.7202,2.9082 18.4418,2.9244 13.0061,3.3814 10.6086,0.4865 10.5134,0.3684 10.3297,0.1352 10.0484,0.0019 9.7523,0 H 9.7461 C 9.4524,0 9.1721,0.1352 8.9869,0.3627 8.8869,0.4855 6.489,3.3795 1.0542,2.9244 0.7796,2.9073 0.5144,2.9948 0.3141,3.1795 0.1138,3.3642 0,3.6241 0,3.8963 v 9.8947 c 0,5.8898 3.3904,11.4016 8.6376,14.0404 0.1404,0.0704 0.2899,0.1038 0.4369,0.1038 0.357,0 0.7006,-0.1961 0.872,-0.5369 C 10.1883,26.9176 9.9946,26.3312 9.5134,26.0894 4.9188,23.779 1.9496,18.9516 1.9496,13.7911 V 4.9197 C 6.084,4.9778 8.5795,3.3509 9.748,2.3428 c 1.1685,1.0081 3.6669,2.6664 7.7984,2.576 v 8.9398 c 0,0.5388 0.4365,0.9405 0.9748,0.9405 0.5383,0 0.9748,-0.4693 0.9748,-1.0081 V 3.8964 c 0,-0.2723 -0.1138,-0.5321 -0.3141,-0.7168 z"
           id="path30" />
      </g>
      <path
         class="cls-2"
         d="m 16.5717,15.5969 c -3.7626,0 -6.8236,3.0615 -6.8236,6.8236 0,3.7621 3.061,6.8236 6.8236,6.8236 3.7626,0 6.8236,-3.0615 6.8236,-6.8236 0,-3.7621 -3.061,-6.8236 -6.8236,-6.8236 z m -3.2129,5.9523 c 0.3877,-0.3936 1.0205,-0.3984 1.4141,-0.0117 l 1.1211,1.1025 2.4766,-2.4355 c 0.3936,-0.3877 1.0264,-0.3828 1.4141,0.0117 0.3872,0.3936 0.3818,1.0273 -0.0117,1.4141 l -3.1777,3.125 c -0.1943,0.1914 -0.4478,0.2871 -0.7012,0.2871 -0.2534,0 -0.5068,-0.0957 -0.7012,-0.2871 l -1.8223,-1.792 C 12.977,22.5766 12.9717,21.9428 13.3589,21.5492 Z"
         id="path34" />
    </g>
  </g>
</svg>
