<?xml version="1.0" encoding="UTF-8"?><svg id="Layer_2" xmlns="http://www.w3.org/2000/svg" width="26.1799" height="26.1799" viewBox="0 0 26.1799 26.1799"><defs><style>.cls-1{fill:#000d2b;}.cls-2{fill:#2447ff;}</style></defs><g id="OBJECT"><g><g><path class="cls-1" d="M26.1695,7.0135l.0105-6.0989c.0008-.4812-.3886-.8719-.8698-.8728L.9146,0C.433-.0008,.0427,.3886,.0418,.8698l-.0105,6.0989c-.0008,.4812,.3882,.8719,.8698,.8728l24.3955,.0418c.4812,.0008,.8719-.3886,.8728-.8698Zm-1.741-.8743l-15.6828-.0269,.0075-4.3563,15.6828,.0269-.0075,4.3563ZM1.7829,1.744l5.2276,.009-.0075,4.3563-5.2276-.009,.0075-4.3563Z"/><path class="cls-1" d="M10.4918,3.9371c-.0008,.4812,.3882,.8719,.8698,.8728l6.0989,.0105c.4812,.0008,.8719-.3886,.8728-.8698s-.3886-.8719-.8698-.8728l-6.0989-.0105c-.4816-.0008-.8719,.3886-.8728,.8698Z"/><path class="cls-1" d="M20.5114,3.9543c-.0008,.4812,.3886,.8719,.8698,.8728l.4356,.0007c.4812,.0008,.8719-.3886,.8728-.8698s-.3886-.8719-.8698-.8728l-.4356-.0007c-.4812-.0008-.8719,.3886-.8728,.8698Z"/><path class="cls-1" d="M5.482,3.9286c.0008-.4812-.3882-.8719-.8698-.8728l-.4356-.0007c-.4816-.0008-.8719,.3886-.8728,.8698s.3882,.8719,.8698,.8728l.4356,.0007c.4816,.0008,.8719-.3886,.8728-.8698Z"/><path class="cls-1" d="M26.1381,25.3101l.0105-6.0989c.0008-.4812-.3886-.8719-.8698-.8728l-24.3955-.0418c-.4816-.0008-.8719,.3886-.8728,.8698L0,25.2653c-.0008,.4812,.3882,.8719,.8698,.8728l24.3955,.0418c.4812,.0008,.8719-.3886,.8728-.8698Zm-1.741-.8743l-15.6828-.0269,.0075-4.3563,15.6828,.0269-.0075,4.3563ZM1.7515,20.0407l5.2276,.009-.0075,4.3563-5.2276-.009,.0075-4.3563Z"/><path class="cls-1" d="M10.4605,22.2338c-.0008,.4812,.3882,.8719,.8698,.8728l6.0989,.0105c.4812,.0008,.8719-.3886,.8728-.8698s-.3886-.8719-.8698-.8728l-6.0989-.0105c-.4816-.0008-.8719,.3886-.8728,.8698Z"/><path class="cls-1" d="M20.4801,22.251c-.0008,.4812,.3886,.8719,.8698,.8728l.4356,.0007c.4812,.0008,.8719-.3886,.8728-.8698s-.3886-.8719-.8698-.8728l-.4356-.0007c-.4812-.0008-.8719,.3886-.8728,.8698Z"/><path class="cls-1" d="M5.4507,22.2252c.0008-.4812-.3882-.8719-.8698-.8728l-.4356-.0007c-.4816-.0008-.8719,.3886-.8728,.8698s.3882,.8719,.8698,.8728l.4356,.0007c.4816,.0008,.8719-.3886,.8728-.8698Z"/></g><g><path class="cls-2" d="M26.1538,16.1618l.0105-6.0989c.0008-.4812-.3886-.8719-.8698-.8728l-16.2761-.0279-.0134,7.8414,16.2761,.0279c.4812,.0008,.8719-.3886,.8728-.8698Zm-14.5283-3.0744h0c.0008-.4812,.3916-.8706,.8728-.8698l6.0989,.0105c.4812,.0008,.8706,.3916,.8698,.8728h0c-.0008,.4812-.3916,.8706-.8728,.8698l-6.0989-.0105c-.4812-.0008-.8706-.3916-.8698-.8728Zm10.0196,.0172h0c.0008-.4812,.3916-.8706,.8728-.8698l.4356,.0007c.4812,.0008,.8706,.3916,.8698,.8728h0c-.0008,.4812-.3916,.8706-.8728,.8698l-.4356-.0007c-.4812-.0008-.8706-.3916-.8698-.8728Z"/><path class="cls-2" d="M.8989,9.1483c-.4816-.0008-.8719,.3886-.8728,.8698l-.0105,6.0989c-.0008,.4812,.3882,.8719,.8698,.8728l6.377,.0109,.0134-7.8414-6.377-.0109Zm3.9742,3.9275h0c-.0008,.4812-.3916,.8706-.8728,.8698l-.4356-.0007c-.4812-.0008-.8706-.3916-.8698-.8728h0c.0008-.4812,.3916-.8706,.8728-.8698l.4356,.0007c.4812,.0008,.8706,.3916,.8698,.8728Z"/></g></g></g></svg>