<?xml version="1.0" encoding="UTF-8"?><svg id="Layer_2" xmlns="http://www.w3.org/2000/svg" width="26.1388" height="26.1388" viewBox="0 0 26.1388 26.1388"><defs><style>.cls-1{fill:#000d2b;}.cls-2{fill:#2447ff;}.cls-3{fill:#212121;}</style></defs><g id="OBJECT"><path class="cls-1" d="M0,3.4307C0,1.536,1.536,0,3.4307,0H20.0942c1.8947,0,3.4307,1.536,3.4307,3.4307V11.7909c-.51-.3265-1.0571-.6-1.6337-.8127V3.4307c0-.9925-.8046-1.797-1.797-1.797H3.4307c-.9925,0-1.797,.8046-1.797,1.797V20.0942c0,.9925,.8046,1.797,1.797,1.797h7.5475c.2128,.5766,.4862,1.1237,.8127,1.6337H3.4307c-1.8947,0-3.4307-1.536-3.4307-3.4307V3.4307Z"/><path class="cls-3" d="M2.6139,10.1288c0-1.6241,1.3165-2.9406,2.9406-2.9406s2.9406,1.3165,2.9406,2.9406-1.3165,2.9406-2.9406,2.9406-2.9406-1.3165-2.9406-2.9406Zm2.9406-1.3069c-.7218,0-1.3069,.5851-1.3069,1.3069s.5851,1.3069,1.3069,1.3069,1.3069-.5851,1.3069-1.3069-.5851-1.3069-1.3069-1.3069Z"/><path class="cls-3" d="M5.5545,15.0298c-1.6241,0-2.9406,1.3165-2.9406,2.9406s1.3165,2.9406,2.9406,2.9406,2.9406-1.3165,2.9406-2.9406-1.3165-2.9406-2.9406-2.9406Zm-1.3069,2.9406c0-.7218,.5851-1.3069,1.3069-1.3069s1.3069,.5851,1.3069,1.3069-.5851,1.3069-1.3069,1.3069-1.3069-.5851-1.3069-1.3069Z"/><path class="cls-1" d="M9.8028,9.3119c0-.4512,.3657-.8168,.8168-.8168h9.4745c.4512,0,.8168,.3657,.8168,.8168s-.3657,.8168-.8168,.8168H10.6197c-.4511,0-.8168-.3657-.8168-.8168Z"/><path class="cls-1" d="M3.4393,3.3296c-.4512,0-.8168,.3657-.8168,.8168s.3657,.8168,.8168,.8168H20.081c.4512,0,.8168-.3657,.8168-.8168s-.3657-.8168-.8168-.8168H3.4393Z"/><path class="cls-2" d="M26.1388,18.9506c0,3.9699-3.2183,7.1882-7.1882,7.1882s-7.1882-3.2183-7.1882-7.1882,3.2183-7.1882,7.1882-7.1882,7.1882,3.2183,7.1882,7.1882Zm-6.5347-4.5743c0-.3609-.2926-.6535-.6535-.6535s-.6535,.2926-.6535,.6535v3.9208h-3.9208c-.3609,0-.6535,.2926-.6535,.6535s.2926,.6535,.6535,.6535h3.9208v3.9208c0,.3609,.2926,.6535,.6535,.6535s.6535-.2926,.6535-.6535v-3.9208h3.9208c.3609,0,.6535-.2926,.6535-.6535s-.2926-.6535-.6535-.6535h-3.9208v-3.9208Z"/></g></svg>